<?xml version="1.0" standalone="no"?>
<!DOCTYPE svg PUBLIC "-//W3C//DTD SVG 20010904//EN"
 "http://www.w3.org/TR/2001/REC-SVG-20010904/DTD/svg10.dtd">
<svg version="1.0" xmlns="http://www.w3.org/2000/svg"
 width="128.000000pt" height="128.000000pt" viewBox="0 0 128.000000 128.000000"
 preserveAspectRatio="xMidYMid meet">
<metadata>
Created by potrace 1.11, written by Peter Selinger 2001-2013
</metadata>
<g transform="translate(0.000000,128.000000) scale(0.100000,-0.100000)"
fill="#000000" stroke="none">
<path d="M55 1220 c5 -8 30 -42 56 -75 25 -33 98 -130 161 -216 l116 -156 -55
-59 c-30 -32 -109 -114 -175 -181 -112 -114 -120 -124 -115 -153 12 -56 70
-128 127 -157 l52 -26 62 30 c33 17 97 38 141 48 98 21 172 59 198 103 10 17
21 32 23 32 2 0 2 -33 0 -72 -5 -84 -29 -160 -86 -265 l-39 -73 329 0 329 0
-19 44 -19 44 36 -24 c44 -30 52 -25 24 15 -14 19 -18 32 -11 36 8 5 7 12 -3
23 -8 10 -18 28 -22 40 -6 22 -5 23 17 17 62 -18 59 -20 33 37 -26 57 -38 118
-25 118 5 0 12 -4 15 -10 3 -5 11 -10 16 -10 6 0 -4 21 -21 46 -18 25 -30 48
-27 50 3 3 20 -2 37 -11 l33 -17 -23 34 c-13 18 -31 42 -41 53 -18 20 -18 20
22 17 37 -4 40 -3 31 14 -11 19 -30 40 -76 83 -33 29 -26 41 27 42 l42 0 -55
25 c-30 13 -68 31 -85 39 l-30 15 50 -1 c28 0 57 0 65 0 18 1 -33 34 -75 48
-28 9 -26 10 48 33 42 13 76 25 74 26 -1 1 -31 5 -67 8 -159 12 -225 19 -228
21 -1 1 50 13 115 25 129 26 128 33 -5 46 l-63 7 78 39 78 39 -120 -5 c-111
-5 -210 -24 -287 -55 -23 -9 -28 -8 -28 4 0 35 174 113 293 131 90 14 68 23
-43 19 -116 -4 -189 -18 -247 -48 l-31 -17 -21 36 c-19 31 -41 39 -41 14 0 -5
-4 -20 -10 -34 l-9 -26 -47 47 c-56 56 -62 51 -72 -68 l-7 -81 -50 38 c-27 21
-54 42 -60 46 -36 28 -199 150 -245 183 -30 22 -50 33 -45 25z"/>
</g>
</svg>
